<svg width="115" height="41" viewBox="0 0 115 41" fill="none" xmlns="http://www.w3.org/2000/svg">
<g filter="url(#filter0_d_625_34)">
<rect x="5" y="1" width="105" height="31" rx="8" fill="#F4D23B" shape-rendering="crispEdges"/>
<path fill-rule="evenodd" clip-rule="evenodd" d="M19.2573 6.02394C19.2533 6.01222 19.262 6 19.2744 6H26.6502C26.6581 6 26.6651 6.00515 26.6675 6.01271L30.0553 16.9582C30.0589 16.9698 30.0502 16.9816 30.038 16.9816H25.1277C25.1217 16.9816 25.1174 16.9873 25.119 16.993L27.9352 26.9067C27.9407 26.926 27.9155 26.9385 27.9035 26.9225L16.9592 12.3684C16.9503 12.3565 16.9588 12.3395 16.9736 12.3395H21.4302C21.4364 12.3395 21.4407 12.3334 21.4387 12.3275L19.2573 6.02394Z" fill="white"/>
<path d="M53.352 12.278V15.54H56.908V16.59H53.352V19.95H57.328V21H52.078V11.228H57.328V12.278H53.352ZM60.5297 10.64V21H59.2557V10.64H60.5297ZM69.701 16.87C69.701 17.1127 69.687 17.3693 69.659 17.64H63.527C63.5737 18.396 63.8304 18.9887 64.297 19.418C64.773 19.838 65.347 20.048 66.019 20.048C66.5697 20.048 67.027 19.922 67.391 19.67C67.7644 19.4087 68.0257 19.0633 68.175 18.634H69.547C69.3417 19.3713 68.931 19.9733 68.315 20.44C67.699 20.8973 66.9337 21.126 66.019 21.126C65.291 21.126 64.6377 20.9627 64.059 20.636C63.4897 20.3093 63.0417 19.8473 62.715 19.25C62.3884 18.6433 62.225 17.9433 62.225 17.15C62.225 16.3567 62.3837 15.6613 62.701 15.064C63.0184 14.4667 63.4617 14.0093 64.031 13.692C64.6097 13.3653 65.2724 13.202 66.019 13.202C66.747 13.202 67.391 13.3607 67.951 13.678C68.511 13.9953 68.9404 14.434 69.239 14.994C69.547 15.5447 69.701 16.17 69.701 16.87ZM68.385 16.604C68.385 16.1187 68.2777 15.7033 68.063 15.358C67.8484 15.0033 67.5544 14.7373 67.181 14.56C66.817 14.3733 66.411 14.28 65.963 14.28C65.319 14.28 64.7684 14.4853 64.311 14.896C63.863 15.3067 63.6064 15.876 63.541 16.604H68.385ZM70.9067 17.15C70.9067 16.3567 71.0654 15.666 71.3827 15.078C71.7 14.4807 72.1387 14.0187 72.6987 13.692C73.268 13.3653 73.9167 13.202 74.6447 13.202C75.5874 13.202 76.362 13.4307 76.9687 13.888C77.5847 14.3453 77.9907 14.98 78.1867 15.792H76.8147C76.684 15.3253 76.4274 14.9567 76.0447 14.686C75.6714 14.4153 75.2047 14.28 74.6447 14.28C73.9167 14.28 73.3287 14.532 72.8807 15.036C72.4327 15.5307 72.2087 16.2353 72.2087 17.15C72.2087 18.074 72.4327 18.788 72.8807 19.292C73.3287 19.796 73.9167 20.048 74.6447 20.048C75.2047 20.048 75.6714 19.9173 76.0447 19.656C76.418 19.3947 76.6747 19.0213 76.8147 18.536H78.1867C77.9814 19.32 77.5707 19.95 76.9547 20.426C76.3387 20.8927 75.5687 21.126 74.6447 21.126C73.9167 21.126 73.268 20.9627 72.6987 20.636C72.1387 20.3093 71.7 19.8473 71.3827 19.25C71.0654 18.6527 70.9067 17.9527 70.9067 17.15ZM81.4406 14.378V18.9C81.4406 19.2733 81.5199 19.5393 81.6786 19.698C81.8373 19.8473 82.1126 19.922 82.5046 19.922H83.4426V21H82.2946C81.5853 21 81.0533 20.8367 80.6986 20.51C80.3439 20.1833 80.1666 19.6467 80.1666 18.9V14.378H79.1726V13.328H80.1666V11.396H81.4406V13.328H83.4426V14.378H81.4406ZM86.2602 14.574C86.4842 14.1353 86.8015 13.7947 87.2122 13.552C87.6322 13.3093 88.1409 13.188 88.7382 13.188V14.504H88.4022C86.9742 14.504 86.2602 15.2787 86.2602 16.828V21H84.9862V13.328H86.2602V14.574ZM90.8669 12.082C90.6242 12.082 90.4189 11.998 90.2509 11.83C90.0829 11.662 89.9989 11.4567 89.9989 11.214C89.9989 10.9713 90.0829 10.766 90.2509 10.598C90.4189 10.43 90.6242 10.346 90.8669 10.346C91.1002 10.346 91.2962 10.43 91.4549 10.598C91.6229 10.766 91.7069 10.9713 91.7069 11.214C91.7069 11.4567 91.6229 11.662 91.4549 11.83C91.2962 11.998 91.1002 12.082 90.8669 12.082ZM91.4829 13.328V21H90.2089V13.328H91.4829ZM93.1782 17.15C93.1782 16.3567 93.3368 15.666 93.6542 15.078C93.9715 14.4807 94.4102 14.0187 94.9702 13.692C95.5395 13.3653 96.1882 13.202 96.9162 13.202C97.8588 13.202 98.6335 13.4307 99.2402 13.888C99.8562 14.3453 100.262 14.98 100.458 15.792H99.0862C98.9555 15.3253 98.6988 14.9567 98.3162 14.686C97.9428 14.4153 97.4762 14.28 96.9162 14.28C96.1882 14.28 95.6002 14.532 95.1522 15.036C94.7042 15.5307 94.4802 16.2353 94.4802 17.15C94.4802 18.074 94.7042 18.788 95.1522 19.292C95.6002 19.796 96.1882 20.048 96.9162 20.048C97.4762 20.048 97.9428 19.9173 98.3162 19.656C98.6895 19.3947 98.9462 19.0213 99.0862 18.536H100.458C100.253 19.32 99.8422 19.95 99.2262 20.426C98.6102 20.8927 97.8402 21.126 96.9162 21.126C96.1882 21.126 95.5395 20.9627 94.9702 20.636C94.4102 20.3093 93.9715 19.8473 93.6542 19.25C93.3368 18.6527 93.1782 17.9527 93.1782 17.15Z" fill="white"/>
<rect x="4.5" y="0.5" width="106" height="32" rx="8.5" stroke="white" stroke-opacity="0.47" stroke-dasharray="2 2" shape-rendering="crispEdges"/>
</g>
<defs>
<filter id="filter0_d_625_34" x="0" y="0" width="115" height="41" filterUnits="userSpaceOnUse" color-interpolation-filters="sRGB">
<feFlood flood-opacity="0" result="BackgroundImageFix"/>
<feColorMatrix in="SourceAlpha" type="matrix" values="0 0 0 0 0 0 0 0 0 0 0 0 0 0 0 0 0 0 127 0" result="hardAlpha"/>
<feOffset dy="4"/>
<feGaussianBlur stdDeviation="2"/>
<feComposite in2="hardAlpha" operator="out"/>
<feColorMatrix type="matrix" values="0 0 0 0 0 0 0 0 0 0 0 0 0 0 0 0 0 0 0.25 0"/>
<feBlend mode="normal" in2="BackgroundImageFix" result="effect1_dropShadow_625_34"/>
<feBlend mode="normal" in="SourceGraphic" in2="effect1_dropShadow_625_34" result="shape"/>
</filter>
</defs>
</svg>
